<?xml version="1.0" standalone="no"?><svg xmlns="http://www.w3.org/2000/svg" viewBox="0 0 1440 320"><path fill="#00cba9" fill-opacity="1" d="M0,224L20,229.3C40,235,80,245,120,256C160,267,200,277,240,288C280,299,320,309,360,288C400,267,440,213,480,165.3C520,117,560,75,600,90.7C640,107,680,181,720,224C760,267,800,277,840,245.3C880,213,920,139,960,112C1000,85,1040,107,1080,101.3C1120,96,1160,64,1200,80C1240,96,1280,160,1320,165.3C1360,171,1400,117,1420,90.7L1440,64L1440,320L1420,320C1400,320,1360,320,1320,320C1280,320,1240,320,1200,320C1160,320,1120,320,1080,320C1040,320,1000,320,960,320C920,320,880,320,840,320C800,320,760,320,720,320C680,320,640,320,600,320C560,320,520,320,480,320C440,320,400,320,360,320C320,320,280,320,240,320C200,320,160,320,120,320C80,320,40,320,20,320L0,320Z"></path></svg>